<svg xmlns="http://www.w3.org/2000/svg" viewBox="0 0 960 540" role="img" aria-labelledby="title desc">
  <title id="title">Client Pulse preview</title>
  <desc id="desc">A teal client relationship board with follow-up queue, value tracking, and account health cards.</desc>
  <defs>
    <linearGradient id="bg" x1="0" y1="0" x2="0" y2="1">
      <stop offset="0%" stop-color="#081118" />
      <stop offset="100%" stop-color="#050911" />
    </linearGradient>
    <linearGradient id="accent" x1="0" y1="0" x2="1" y2="0">
      <stop offset="0%" stop-color="#2dd4bf" />
      <stop offset="100%" stop-color="#67e8f9" />
    </linearGradient>
  </defs>
  <rect width="960" height="540" fill="url(#bg)" />
  <rect x="36" y="32" width="888" height="84" rx="24" fill="#0b1620" stroke="#20404d" />
  <text x="66" y="72" font-family="Inter, Arial, sans-serif" font-size="28" fill="#eef2ff">Client Pulse</text>
  <text x="66" y="96" font-family="Inter, Arial, sans-serif" font-size="14" fill="#b7c0d9">Relationship health, follow-up timing, and tracked value in one local-first board.</text>

  <rect x="36" y="138" width="888" height="118" rx="28" fill="#0b1620" stroke="#20404d" />
  <rect x="62" y="164" width="184" height="68" rx="18" fill="#0e1d28" stroke="#20404d" />
  <rect x="264" y="164" width="184" height="68" rx="18" fill="#0e1d28" stroke="#20404d" />
  <rect x="466" y="164" width="184" height="68" rx="18" fill="#0e1d28" stroke="#20404d" />
  <rect x="668" y="164" width="230" height="68" rx="18" fill="#0e1d28" stroke="#20404d" />
  <text x="84" y="189" font-family="Inter, Arial, sans-serif" font-size="13" fill="#b7c0d9">Clients</text>
  <text x="84" y="220" font-family="Inter, Arial, sans-serif" font-size="26" fill="#eef2ff">12</text>
  <text x="286" y="189" font-family="Inter, Arial, sans-serif" font-size="13" fill="#b7c0d9">Pipeline value</text>
  <text x="286" y="220" font-family="Inter, Arial, sans-serif" font-size="26" fill="#eef2ff">£21.4k</text>
  <text x="488" y="189" font-family="Inter, Arial, sans-serif" font-size="13" fill="#b7c0d9">Overdue follow-ups</text>
  <text x="488" y="220" font-family="Inter, Arial, sans-serif" font-size="26" fill="#eef2ff">2</text>
  <text x="690" y="189" font-family="Inter, Arial, sans-serif" font-size="13" fill="#b7c0d9">Healthy relationships</text>
  <text x="690" y="220" font-family="Inter, Arial, sans-serif" font-size="26" fill="#eef2ff">7 active</text>

  <rect x="36" y="278" width="522" height="226" rx="28" fill="#0b1620" stroke="#20404d" />
  <text x="62" y="314" font-family="Inter, Arial, sans-serif" font-size="18" fill="#eef2ff">Client board</text>
  <text x="62" y="336" font-family="Inter, Arial, sans-serif" font-size="13" fill="#b7c0d9">Ranked by leverage, urgency, momentum, and value.</text>

  <rect x="62" y="356" width="470" height="54" rx="18" fill="#111b24" stroke="#20404d" />
  <text x="84" y="388" font-family="Inter, Arial, sans-serif" font-size="16" fill="#eef2ff">Blue Ridge Advisory</text>
  <text x="274" y="388" font-family="Inter, Arial, sans-serif" font-size="12" fill="#9feadf">Next 29 Apr</text>
  <text x="416" y="388" font-family="Inter, Arial, sans-serif" font-size="12" fill="#eef2ff">£3.2k</text>

  <rect x="62" y="422" width="470" height="54" rx="18" fill="#111b24" stroke="#20404d" />
  <text x="84" y="454" font-family="Inter, Arial, sans-serif" font-size="16" fill="#eef2ff">Northline Studio</text>
  <text x="274" y="454" font-family="Inter, Arial, sans-serif" font-size="12" fill="#ffb4c1">Due today</text>
  <text x="416" y="454" font-family="Inter, Arial, sans-serif" font-size="12" fill="#eef2ff">£1.4k</text>

  <rect x="584" y="278" width="340" height="226" rx="28" fill="#0b1620" stroke="#20404d" />
  <text x="610" y="314" font-family="Inter, Arial, sans-serif" font-size="18" fill="#eef2ff">Follow-up queue</text>
  <text x="610" y="336" font-family="Inter, Arial, sans-serif" font-size="13" fill="#b7c0d9">The next conversations that keep revenue warm.</text>
  <rect x="610" y="356" width="288" height="42" rx="14" fill="#111b24" stroke="#20404d" />
  <rect x="610" y="408" width="288" height="42" rx="14" fill="#111b24" stroke="#20404d" />
  <rect x="610" y="460" width="288" height="18" rx="9" fill="rgba(255,255,255,0.08)" />
  <rect x="610" y="460" width="166" height="18" rx="9" fill="url(#accent)" />
  <text x="630" y="382" font-family="Inter, Arial, sans-serif" font-size="14" fill="#eef2ff">Marcus Hale, voice note today</text>
  <text x="630" y="434" font-family="Inter, Arial, sans-serif" font-size="14" fill="#eef2ff">Aisha Rahman, expansion check-in</text>
</svg>
